<svg width="209" height="209" viewBox="0 0 209 209" fill="none" xmlns="http://www.w3.org/2000/svg">
<path d="M131.499 45.6555C134.023 48.1757 134.023 52.2619 131.499 54.782L128.042 58.2506L116.749 46.9599L120.218 43.496C122.742 40.9755 126.821 40.9755 129.345 43.496L131.499 45.6555V45.6555ZM94.8664 68.8522L114.145 49.5665L125.438 60.8549L106.148 80.1336C105.445 80.8481 104.581 81.3781 103.624 81.7008L93.3914 85.1117C92.2967 85.4344 91.3057 85.1809 90.5566 84.3397C89.8191 83.6943 89.5656 82.5996 89.8883 81.6086L93.2992 71.3758C93.6219 70.4193 94.152 69.5551 94.8664 68.8522V68.8522ZM97.125 48.2713C99.1646 48.2713 100.812 50.0263 100.812 51.9588C100.812 54.1022 99.1646 55.6463 97.125 55.6463H86.0625C84.0263 55.6463 82.375 57.3979 82.375 59.3338V88.9375C82.375 90.9772 84.0263 92.625 86.0625 92.625H115.562C117.602 92.625 119.25 90.9772 119.25 88.9375V77.7713C119.25 75.8354 120.898 74.0838 122.938 74.0838C124.977 74.0838 126.625 75.8354 126.625 77.7713V88.9375C126.625 95.0449 121.67 100 115.562 100H86.0625C79.9528 100 75 95.0449 75 88.9375V59.3338C75 53.2264 79.9528 48.2713 86.0625 48.2713H97.125V48.2713Z" fill="#E0E0E0"/>
<path d="M19.584 138.616H25.056V152.088C25.056 152.216 25.056 152.344 25.056 152.472C25.056 152.579 25.056 152.685 25.056 152.792C25.0347 153.581 24.9387 154.36 24.768 155.128C24.6187 155.875 24.32 156.557 23.872 157.176C23.3173 157.923 22.6453 158.477 21.856 158.84C21.0667 159.203 20.256 159.405 19.424 159.448C19.3813 159.448 19.3387 159.448 19.296 159.448C19.2533 159.448 19.2107 159.448 19.168 159.448C19.0613 159.448 18.9547 159.448 18.848 159.448C18.7627 159.448 18.6773 159.437 18.592 159.416C17.504 159.331 16.4587 159.011 15.456 158.456C14.4747 157.901 13.664 157.165 13.024 156.248L16.416 153.176C16.4373 153.261 16.4587 153.357 16.48 153.464C16.5013 153.549 16.5333 153.645 16.576 153.752C16.704 154.093 16.8747 154.403 17.088 154.68C17.3227 154.957 17.6107 155.096 17.952 155.096C17.9947 155.096 18.0373 155.096 18.08 155.096C18.144 155.075 18.208 155.053 18.272 155.032C18.2933 155.032 18.304 155.032 18.304 155.032C18.3253 155.032 18.336 155.032 18.336 155.032C18.3787 155.011 18.4213 155 18.464 155C18.528 154.979 18.5707 154.968 18.592 154.968C18.9333 154.819 19.168 154.477 19.296 153.944C19.4453 153.411 19.5307 152.845 19.552 152.248C19.5733 152.12 19.584 151.992 19.584 151.864C19.584 151.736 19.584 151.608 19.584 151.48V138.616ZM42.9108 144.952V152.088C42.9108 153.283 42.7934 154.381 42.5588 155.384C42.3454 156.387 41.7374 157.293 40.7348 158.104C40.1374 158.531 39.4334 158.851 38.6228 159.064C37.8334 159.299 37.0228 159.437 36.1908 159.48C36.0841 159.48 35.9881 159.48 35.9028 159.48C35.8174 159.48 35.7321 159.48 35.6468 159.48C35.5614 159.48 35.4761 159.48 35.3908 159.48C35.3054 159.48 35.2201 159.48 35.1348 159.48C34.2814 159.437 33.4388 159.299 32.6068 159.064C31.7961 158.851 31.0921 158.531 30.4948 158.104C29.4921 157.336 28.8734 156.44 28.6388 155.416C28.4254 154.371 28.3188 153.261 28.3188 152.088V144.952H33.0868V152.408C33.0868 153.283 33.2361 154.061 33.5348 154.744C33.8334 155.405 34.5054 155.736 35.5508 155.736C36.6388 155.736 37.3214 155.416 37.5988 154.776C37.8761 154.115 38.0148 153.325 38.0148 152.408V144.952H42.9108ZM45.7778 157.816L46.8338 154.008C47.4524 154.541 48.1138 154.968 48.8177 155.288C49.5218 155.587 50.2791 155.8 51.0898 155.928C51.1111 155.928 51.1324 155.939 51.1538 155.96C51.1964 155.96 51.2498 155.96 51.3138 155.96C51.3564 155.96 51.3991 155.971 51.4418 155.992C51.4844 155.992 51.5378 155.992 51.6018 155.992C51.7084 155.992 51.8258 155.992 51.9538 155.992C52.0818 155.971 52.1991 155.949 52.3058 155.928C52.6898 155.864 53.0311 155.747 53.3298 155.576C53.6284 155.405 53.7778 155.181 53.7778 154.904C53.7778 154.84 53.7671 154.765 53.7458 154.68C53.7244 154.595 53.7031 154.499 53.6818 154.392C53.6604 154.349 53.6391 154.317 53.6178 154.296C53.5964 154.253 53.5751 154.211 53.5538 154.168C53.4044 153.933 53.1484 153.763 52.7858 153.656C52.4444 153.528 52.0818 153.421 51.6978 153.336C51.5698 153.315 51.4311 153.293 51.2818 153.272C51.1538 153.229 51.0151 153.197 50.8658 153.176C50.7591 153.155 50.6524 153.133 50.5458 153.112C50.4391 153.091 50.3431 153.069 50.2578 153.048C49.4471 152.771 48.6791 152.397 47.9538 151.928C47.2498 151.437 46.8018 150.755 46.6098 149.88C46.6098 149.837 46.5991 149.795 46.5778 149.752C46.5778 149.709 46.5778 149.656 46.5778 149.592C46.5778 149.571 46.5671 149.549 46.5458 149.528C46.5458 149.507 46.5458 149.485 46.5458 149.464C46.5458 149.4 46.5351 149.336 46.5138 149.272C46.5138 149.187 46.5138 149.112 46.5138 149.048C46.5138 148.984 46.5138 148.92 46.5138 148.856C46.5138 148.792 46.5244 148.728 46.5458 148.664C46.5884 148.067 46.7591 147.491 47.0578 146.936C47.3564 146.381 47.7404 145.923 48.2098 145.56C48.6578 145.24 49.1591 144.995 49.7138 144.824C50.2684 144.653 50.8338 144.547 51.4098 144.504C51.4951 144.483 51.5911 144.472 51.6978 144.472C51.8044 144.472 51.9111 144.472 52.0178 144.472C52.2311 144.472 52.4444 144.483 52.6578 144.504C52.8924 144.504 53.1271 144.525 53.3618 144.568C54.1511 144.653 54.9298 144.813 55.6978 145.048C56.4871 145.283 57.1911 145.528 57.8098 145.784L56.7858 149.208C56.1884 148.803 55.5591 148.472 54.8978 148.216C54.2364 147.939 53.5111 147.8 52.7218 147.8C52.6364 147.8 52.5404 147.8 52.4338 147.8C52.3484 147.8 52.2524 147.811 52.1458 147.832C51.8898 147.875 51.6551 147.96 51.4418 148.088C51.2284 148.195 51.0898 148.387 51.0258 148.664L50.9618 148.824C50.9618 148.845 50.9618 148.867 50.9618 148.888C50.9618 148.888 50.9618 148.899 50.9618 148.92C50.9831 149.112 51.0578 149.283 51.1858 149.432C51.3351 149.581 51.5058 149.677 51.6978 149.72C51.9538 149.805 52.1991 149.891 52.4338 149.976C52.6898 150.061 52.9458 150.136 53.2018 150.2C53.2658 150.221 53.3298 150.243 53.3938 150.264C53.4791 150.285 53.5538 150.307 53.6178 150.328C53.8951 150.392 54.1618 150.467 54.4178 150.552C54.6951 150.616 54.9618 150.701 55.2178 150.808C56.1351 151.149 56.8391 151.651 57.3298 152.312C57.8204 152.973 58.1084 153.667 58.1938 154.392C58.2151 154.477 58.2258 154.563 58.2258 154.648C58.2258 154.712 58.2258 154.776 58.2258 154.84C58.2258 154.925 58.2258 155.011 58.2258 155.096C58.2258 155.16 58.2151 155.235 58.1938 155.32C58.1298 155.853 57.9484 156.387 57.6498 156.92C57.3724 157.432 56.9778 157.88 56.4658 158.264C55.9111 158.691 55.2818 158.989 54.5778 159.16C53.8951 159.352 53.1911 159.459 52.4658 159.48C52.4018 159.48 52.3378 159.48 52.2738 159.48C52.2311 159.48 52.1778 159.48 52.1138 159.48C51.9218 159.48 51.7298 159.469 51.5378 159.448C51.3671 159.448 51.1858 159.437 50.9938 159.416C50.0551 159.309 49.1271 159.117 48.2098 158.84C47.3138 158.541 46.5031 158.2 45.7778 157.816ZM62.889 159V148.408H60.809V144.952H62.889V140.728H67.753V144.952H69.897V148.408H67.753V159H62.889ZM85.2125 159V138.616H90.5885L98.2685 149.08C98.4605 149.379 98.6418 149.699 98.8125 150.04C99.0045 150.36 99.1858 150.691 99.3565 151.032C99.4845 151.309 99.6125 151.587 99.7405 151.864C99.8685 152.141 99.9965 152.408 100.125 152.664C100.103 152.429 100.071 152.205 100.029 151.992C100.007 151.779 99.9858 151.555 99.9645 151.32C99.9218 150.893 99.8898 150.456 99.8685 150.008C99.8472 149.56 99.8365 149.101 99.8365 148.632V138.616H105.181V159H99.8365L92.0925 148.472C91.8792 148.216 91.6765 147.917 91.4845 147.576C91.2925 147.213 91.1112 146.84 90.9405 146.456C90.8125 146.179 90.6845 145.912 90.5565 145.656C90.4498 145.379 90.3432 145.123 90.2365 144.888C90.3432 145.549 90.4285 146.221 90.4925 146.904C90.5565 147.587 90.5885 148.269 90.5885 148.952V159H85.2125ZM123.037 154.84C122.439 156.227 121.49 157.325 120.189 158.136C118.909 158.925 117.554 159.363 116.125 159.448C116.039 159.448 115.954 159.448 115.869 159.448C115.805 159.448 115.741 159.448 115.677 159.448C115.463 159.448 115.239 159.437 115.005 159.416C114.791 159.395 114.578 159.363 114.365 159.32C113.959 159.256 113.565 159.171 113.181 159.064C112.797 158.957 112.434 158.819 112.093 158.648C110.834 157.987 109.831 157.048 109.085 155.832C108.338 154.595 107.965 153.304 107.965 151.96C107.965 151.725 107.975 151.48 107.997 151.224C108.018 150.968 108.061 150.712 108.125 150.456C108.189 150.115 108.285 149.773 108.413 149.432C108.541 149.069 108.701 148.728 108.893 148.408C109.597 147.149 110.578 146.179 111.837 145.496C113.095 144.813 114.407 144.472 115.773 144.472C116.007 144.472 116.231 144.483 116.445 144.504C116.679 144.525 116.914 144.557 117.149 144.6C117.682 144.685 118.205 144.824 118.717 145.016C119.229 145.187 119.709 145.421 120.157 145.72C121.138 146.317 121.927 147.128 122.525 148.152C123.122 149.176 123.474 150.243 123.581 151.352C123.581 151.48 123.581 151.608 123.581 151.736C123.602 151.843 123.613 151.949 123.613 152.056C123.613 152.205 123.602 152.365 123.581 152.536C123.581 152.685 123.57 152.835 123.549 152.984C123.506 153.304 123.442 153.624 123.357 153.944C123.271 154.243 123.165 154.541 123.037 154.84ZM115.773 148.664C114.898 148.664 114.194 148.973 113.661 149.592C113.149 150.211 112.893 150.904 112.893 151.672C112.893 152.483 113.181 153.197 113.757 153.816C114.354 154.435 115.026 154.744 115.773 154.744C116.711 154.744 117.415 154.435 117.885 153.816C118.354 153.176 118.589 152.483 118.589 151.736C118.589 151.715 118.589 151.693 118.589 151.672C118.589 151.629 118.589 151.587 118.589 151.544C118.546 150.84 118.29 150.189 117.821 149.592C117.373 148.973 116.69 148.664 115.773 148.664ZM128.014 159V148.408H125.934V144.952H128.014V140.728H132.878V144.952H135.022V148.408H132.878V159H128.014ZM152.578 152.92H141.89C141.954 153.88 142.22 154.68 142.69 155.32C143.159 155.939 143.916 156.269 144.962 156.312C144.983 156.312 144.994 156.312 144.994 156.312C145.015 156.312 145.036 156.312 145.058 156.312C145.058 156.333 145.058 156.344 145.058 156.344C145.079 156.344 145.1 156.344 145.122 156.344C145.762 156.344 146.338 156.205 146.85 155.928C147.383 155.651 147.82 155.224 148.162 154.648L151.906 156.152C151.351 157.304 150.476 158.157 149.282 158.712C148.108 159.245 146.86 159.523 145.538 159.544C145.516 159.544 145.484 159.544 145.442 159.544C145.42 159.544 145.399 159.544 145.378 159.544C145.335 159.544 145.292 159.544 145.25 159.544C145.228 159.544 145.196 159.544 145.154 159.544C143.959 159.523 142.796 159.288 141.666 158.84C140.535 158.392 139.628 157.752 138.946 156.92C138.434 156.323 138.018 155.651 137.698 154.904C137.399 154.136 137.228 153.357 137.186 152.568C137.186 152.504 137.186 152.451 137.186 152.408C137.186 152.344 137.186 152.28 137.186 152.216C137.186 152.152 137.186 152.077 137.186 151.992C137.207 151.907 137.228 151.821 137.25 151.736C137.25 151.672 137.25 151.597 137.25 151.512C137.271 151.427 137.282 151.352 137.282 151.288C137.516 149.176 138.391 147.512 139.906 146.296C141.42 145.08 143.138 144.472 145.058 144.472C145.463 144.472 145.858 144.504 146.242 144.568C146.647 144.611 147.052 144.685 147.458 144.792C149.463 145.368 150.807 146.413 151.49 147.928C152.172 149.421 152.535 151.085 152.578 152.92ZM144.898 147.48C144.044 147.48 143.394 147.725 142.946 148.216C142.519 148.707 142.22 149.347 142.05 150.136H147.714C147.607 149.389 147.308 148.771 146.818 148.28C146.348 147.768 145.708 147.501 144.898 147.48ZM168.275 159V138.616H173.875V159H168.275ZM179.045 159V148.408H176.965V144.952H179.045V140.728H183.909V144.952H186.053V148.408H183.909V159H179.045ZM191.641 159.768C191.619 159.747 191.598 159.736 191.577 159.736C191.577 159.736 191.566 159.736 191.545 159.736C190.819 159.715 190.158 159.427 189.561 158.872C188.963 158.317 188.665 157.667 188.665 156.92C188.665 156.173 188.963 155.491 189.561 154.872C190.158 154.253 190.819 153.933 191.545 153.912C191.566 153.912 191.577 153.912 191.577 153.912C191.598 153.912 191.619 153.912 191.641 153.912C191.662 153.912 191.673 153.912 191.673 153.912C191.694 153.912 191.715 153.912 191.737 153.912C192.441 153.955 193.081 154.285 193.657 154.904C194.254 155.501 194.553 156.173 194.553 156.92C194.553 157.645 194.254 158.296 193.657 158.872C193.081 159.427 192.441 159.715 191.737 159.736C191.715 159.736 191.694 159.736 191.673 159.736C191.673 159.736 191.662 159.736 191.641 159.736V159.768Z" fill="#E0E0E0"/>
</svg>
